# File created by Blade
# Date/Time:  Wed Jan 28 16:58:26 2015
#---------------------------------------------------------
:version 1.10
:name HOM
:units
  mass 1.0
  length 1.000000
  angle deg
:documentation
     Acclaim Skeleton File
:root
   axis xyz
   order TX TY TZ RX RY RZ
   position 0.000000 0.000000 0.000000
   orientation 0 0 0
:bonedata
   begin
      id 1
      name Spine_dum
      direction 0.000000 1.000000 0.000000
      length 9.621153
      axis 0.0 0.0 0.0 xyz
   end
   begin
      id 2
      name LeftUpLeg_dum
      direction 1.000000 0.000000 0.000000
      length 2.700595
      axis 0.0 0.0 0.0 xyz
   end
   begin
      id 3
      name RightUpLeg_dum
      direction -1.000000 0.000000 0.000000
      length 2.700595
      axis 0.0 0.0 0.0 xyz
   end
   begin
      id 4
      name Spine
      direction 0.000000 1.000000 0.000000
      length 0.000000
      axis 0.0 0.0 0.0 xyz
      dof rx ry rz
   end
   begin
      id 5
      name Spine_dum1
      direction 0.000000 1.000000 0.000000
      length 12.771951
      axis 0.0 0.0 0.0 xyz
   end
   begin
      id 6
      name Spine_dum2
      direction 0.000000 1.000000 0.000000
      length 7.400569
      axis 0.0 0.0 0.0 xyz
   end
   begin
      id 7
      name Spine_dum3
      direction 0.000000 1.000000 0.000000
      length 7.400569
      axis 0.0 0.0 0.0 xyz
   end
   begin
      id 8
      name Head
      direction 0.000000 1.000000 0.000000
      length 4.527550
      axis 0.0 0.0 0.0 xyz
      dof rx ry rz
   end
   begin
      id 9
      name LeftShoulder
      direction 1.000000 0.000000 0.000000
      length 8.349299
      axis 0.0 0.0 -90.0 xyz
      dof rx ry rz
   end
   begin
      id 10
      name LeftArm
      direction 1.000000 0.000000 0.000000
      length 11.334839
      axis 0.0 0.0 -90.0 xyz
      dof rx ry rz
   end
   begin
      id 11
      name LeftForeArm
      direction 1.000000 0.000000 0.000000
      length 9.694182
      axis 0.0 0.0 -90.0 xyz
      dof ry rz rx
   end
   begin
      id 12
      name LeftHand
      direction 0.000000 0.000000 0.000000
      length 0.000000
      axis 0.0 0.0 -90.0 xyz
      dof rx ry rz
   end
   begin
      id 13
      name LeftHand_dum1
      direction 0.000000 0.000000 0.000000
      length 0.000000
      axis 0.0 0.0 -90.0 xyz
   end
   begin
      id 14
      name LeftHand_dum2
      direction 1.000000 0.000000 0.000000
      length 3.937000
      axis 0.0 0.0 -90.0 xyz
   end
   begin
      id 15
      name LeftHandThumb1
      direction 0.000000 0.000000 1.000000
      length 3.937000
      axis 0.0 0.0 -90.0 xyz
      dof rx rz ry
   end
   begin
      id 16
      name RightShoulder
      direction -1.000000 0.000000 0.000000
      length 8.349299
      axis 0.0 0.0 90.0 xyz
      dof rx ry rz
   end
   begin
      id 17
      name RightArm
      direction -1.000000 0.000000 0.000000
      length 11.334839
      axis 0.0 0.0 90.0 xyz
      dof rx ry rz
   end
   begin
      id 18
      name RightForeArm
      direction -1.000000 0.000000 0.000000
      length 9.694182
      axis 0.0 0.0 90.0 xyz
      dof ry rz rx
   end
   begin
      id 19
      name RightHand
      direction 0.000000 0.000000 0.000000
      length 0.000000
      axis 0.0 0.0 90.0 xyz
      dof rx ry rz
   end
   begin
      id 20
      name RightHand_dum1
      direction 0.000000 0.000000 0.000000
      length 0.000000
      axis 0.0 0.0 90.0 xyz
   end
   begin
      id 21
      name RightHand_dum2
      direction -1.000000 0.000000 0.000000
      length 3.937000
      axis 0.0 0.0 90.0 xyz
   end
   begin
      id 22
      name RightHandThumb1
      direction 0.000000 0.000000 1.000000
      length 3.937000
      axis 0.0 0.0 90.0 xyz
      dof rx rz ry
   end
   begin
      id 23
      name LeftUpLeg
      direction 0.000000 -1.000000 0.000000
      length 16.757176
      axis 0.0 0.0 0.0 xyz
      dof rx ry rz
   end
   begin
      id 24
      name LeftLeg
      direction 0.000000 -1.000000 0.000000
      length 16.759153
      axis 0.0 0.0 0.0 xyz
      dof rx ry rz
   end
   begin
      id 25
      name LeftFoot
      direction 0.000000 -0.258819 0.965926
      length 5.841289
      axis 15.0 0.0 0.0 xyz
      dof rx ry rz
   end
   begin
      id 26
      name LeftToeBase
      direction 0.000000 0.000000 1.000000
      length 2.952750
      axis 0.0 0.0 0.0 xyz
      dof rx ry rz
   end
   begin
      id 27
      name RightUpLeg
      direction 0.000000 -1.000000 0.000000
      length 16.757176
      axis 0.0 0.0 0.0 xyz
      dof rx ry rz
   end
   begin
      id 28
      name RightLeg
      direction 0.000000 -1.000000 0.000000
      length 16.759153
      axis 0.0 0.0 0.0 xyz
      dof rx ry rz
   end
   begin
      id 29
      name RightFoot
      direction 0.000000 -0.258819 0.965926
      length 5.841289
      axis 15.0 0.0 0.0 xyz
      dof rx ry rz
   end
   begin
      id 30
      name RightToeBase
      direction 0.000000 0.000000 1.000000
      length 2.952750
      axis 0.0 0.0 0.0 xyz
      dof rx ry rz
   end
:hierarchy
   begin
      root Spine_dum LeftUpLeg_dum RightUpLeg_dum
      Spine_dum Spine
      LeftUpLeg_dum LeftUpLeg
      RightUpLeg_dum RightUpLeg
      Spine Spine_dum1 Spine_dum2 Spine_dum3
      Spine_dum1 Head
      Spine_dum2 LeftShoulder
      Spine_dum3 RightShoulder
      LeftShoulder LeftArm
      LeftArm LeftForeArm
      LeftForeArm LeftHand
      LeftHand LeftHand_dum1 LeftHand_dum2
      LeftHand_dum1 LeftHandThumb1
      RightShoulder RightArm
      RightArm RightForeArm
      RightForeArm RightHand
      RightHand RightHand_dum1 RightHand_dum2
      RightHand_dum1 RightHandThumb1
      LeftUpLeg LeftLeg
      LeftLeg LeftFoot
      LeftFoot LeftToeBase
      RightUpLeg RightLeg
      RightLeg RightFoot
      RightFoot RightToeBase
   end

# File created by Blade
# Date/Time:  Wed Jan 28 16:58:32 2015
# Frame Rate: 120.000 fps
#------------------------------------------------------
:FULLY-SPECIFIED
:DEGREES
1476
root 10.272308 35.733133 -18.737369 181.814050 13.422109 -169.802595
Spine 22.001406 1.711034 -1.544171
Head 45.384928 8.785865 33.752742
LeftShoulder -8.213604 5.868951 23.436600
LeftArm 32.803821 -28.643016 -77.073484
LeftForeArm -6.494836 -0.000000 105.697135
LeftHand -11.149975 -0.000000 24.416968
LeftHandThumb1 -26.253704 0.000000 33.147579
RightShoulder -22.123986 -10.419494 -1.322044
RightArm 14.018334 -30.494510 72.434560
RightForeArm -5.337155 -0.000000 32.776373
RightHand -15.924203 -0.000000 1.707770
RightHandThumb1 -24.326973 -0.000000 -32.862282
LeftUpLeg 1.079751 18.980817 2.886607
LeftLeg 3.402923 -0.000000 -0.000000
LeftFoot -14.536990 14.032791 -2.018022
LeftToeBase 15.366667 -0.000000 -0.000000
RightUpLeg -17.057063 6.779227 2.432735
RightLeg 97.791051 -0.000000 -0.000000
RightFoot 1.004627 -18.519000 8.421348
RightToeBase -1.742333 -0.000000 0.000000
1477
root 10.266457 35.737141 -18.702787 181.691649 13.318401 -169.775310
Spine 22.200398 1.537825 -1.468074
Head 45.353557 8.784385 33.760339
LeftShoulder -8.196057 5.738891 23.423515
LeftArm 32.837890 -28.618506 -77.203955
LeftForeArm -6.262268 -0.000000 105.612886
LeftHand -11.162180 0.000000 24.380786
LeftHandThumb1 -26.253704 0.000000 33.147579
RightShoulder -22.049770 -10.384925 -1.271537
RightArm 13.838219 -30.220170 72.563765
RightForeArm -5.426515 -0.000000 32.760884
RightHand -15.979246 0.000000 1.813022
RightHandThumb1 -24.326973 -0.000000 -32.862282
LeftUpLeg 1.104711 19.311355 2.968621
LeftLeg 3.481863 -0.000000 -0.000000
LeftFoot -14.510885 13.613218 -1.980280
LeftToeBase 15.372023 -0.000000 -0.000000
RightUpLeg -18.746900 6.490563 2.483909
RightLeg 99.534297 -0.000000 -0.000000
RightFoot 1.154192 -18.236998 8.365860
RightToeBase -1.548275 -0.000000 0.000000
1478
root 10.269853 35.742784 -18.662013 181.621875 13.221711 -169.654260
Spine 22.360679 1.365418 -1.280840
Head 45.320508 8.759281 33.742950
LeftShoulder -8.171657 5.685876 23.369135
LeftArm 32.914931 -28.605843 -77.315635
LeftForeArm -6.117709 0.000000 105.564005
LeftHand -11.112521 -0.000000 24.328818
LeftHandThumb1 -26.253704 0.000000 33.147579
RightShoulder -22.020851 -10.357527 -1.221930
RightArm 13.705839 -29.953474 72.640220
RightForeArm -5.502349 0.000000 32.703307
RightHand -16.018692 -0.000000 1.772557
RightHandThumb1 -24.326973 -0.000000 -32.862282
LeftUpLeg 1.071439 19.568543 3.142311
LeftLeg 3.592190 -0.000000 -0.000000
LeftFoot -14.487049 13.315179 -1.899612
LeftToeBase 15.370270 -0.000000 -0.000000
RightUpLeg -20.543303 6.191913 2.664975
RightLeg 101.255206 -0.000000 -0.000000
RightFoot 1.217682 -17.958683 8.195831
RightToeBase -1.501667 -0.000000 0.000000
1479
root 10.272509 35.748663 -18.618874 181.518750 13.150162 -169.566147
Spine 22.593793 1.221834 -1.130689
Head 45.222129 8.777304 33.659339
LeftShoulder -8.132789 5.650819 23.316239
LeftArm 33.022007 -28.670872 -77.424799
LeftForeArm -6.176206 -0.000000 105.543252
LeftHand -11.115226 -0.000000 24.244576
LeftHandThumb1 -26.253704 0.000000 33.147579
RightShoulder -21.992027 -10.276272 -1.197012
RightArm 13.556696 -29.742799 72.755797
RightForeArm -5.435652 -0.000000 32.657003
RightHand -16.135566 -0.000000 1.433731
RightHandThumb1 -24.326973 -0.000000 -32.862282
LeftUpLeg 1.077465 19.868479 3.294374
LeftLeg 3.681459 -0.000000 -0.000000
LeftFoot -14.397892 12.991818 -1.752696
LeftToeBase 15.238706 -0.000000 -0.000000
RightUpLeg -22.407654 5.876795 2.818683
RightLeg 102.993519 -0.000000 -0.000000
RightFoot 1.281908 -17.757788 7.775953
RightToeBase -1.186621 -0.000000 0.000000
